<svg version="1.1" id="Layer_1" xmlns="http://www.w3.org/2000/svg" xmlns:xlink="http://www.w3.org/1999/xlink" x="0px" y="0px"
	 width="100%" viewBox="0 0 874 522" enable-background="new 0 0 874 522" xml:space="preserve">
<path fill="#33B6FF" opacity="1.000000" stroke="none" 
	d="
M816.880127,495.128418 
	C820.913208,498.565948 824.660156,501.794861 829.080994,505.604462 
	C827.075134,505.711975 825.862671,505.834229 824.650208,505.833679 
	C786.655396,505.816132 748.660461,505.731293 710.665955,505.828857 
	C705.926270,505.841034 702.257385,504.769073 698.572571,501.433197 
	C678.455933,483.221313 658.090149,465.283661 637.742859,447.327789 
	C611.913086,424.533844 585.999939,401.834473 560.158569,379.053619 
	C538.181885,359.679688 516.255188,340.249176 494.308868,320.840820 
	C491.194855,318.086945 488.331055,314.960144 484.898987,312.690033 
	C482.891846,311.362396 479.989563,310.890320 477.487549,310.883057 
	C438.992920,310.771790 400.497864,310.801636 362.002930,310.796021 
	C311.343384,310.788635 260.683838,310.808197 210.024353,310.760925 
	C169.900757,310.723480 134.366699,298.001556 104.085091,271.545776 
	C94.453636,263.131195 85.561485,253.866943 76.405090,244.915726 
	C75.018196,243.559921 74.036064,241.790085 71.962685,238.991516 
	C75.474739,238.991516 77.834785,238.991516 80.194824,238.991501 
	C220.010513,238.990753 359.826233,238.963303 499.641785,239.091034 
	C504.998413,239.095932 508.858093,237.680328 512.828491,233.937744 
	C552.092590,196.926453 591.634705,160.210403 630.968689,123.273010 
	C668.120117,88.385178 705.103577,53.318527 742.233887,18.408180 
	C743.540161,17.180019 745.625549,16.105328 747.351990,16.098886 
	C782.013489,15.969547 816.675598,16.007038 851.337585,16.025724 
	C851.619690,16.025877 851.901611,16.228674 852.914795,16.617317 
	C760.484619,104.852577 668.306946,192.846802 575.579956,281.365356 
	C580.710022,286.002533 585.677185,290.566040 590.722717,295.041168 
	C622.723755,323.424591 654.713379,351.820831 686.762024,380.150452 
	C725.674866,414.547882 764.645325,448.880157 803.581787,483.250916 
	C807.949341,487.106354 812.257996,491.028595 816.880127,495.128418 
z"/>
<path fill="#34B7FF" opacity="1.000000" stroke="none" 
	d="
M199.000046,505.737091 
	C167.839233,505.717316 137.178360,505.730591 106.517639,505.671204 
	C83.371582,505.626373 62.420513,498.956726 43.855347,484.930573 
	C29.454941,474.050964 17.070236,453.163910 16.299189,437.212402 
	C18.055162,437.212402 19.783663,437.212280 21.512165,437.212402 
	C147.985428,437.222137 274.458984,437.349762 400.931396,437.030029 
	C411.677521,437.002869 420.026794,439.144592 428.193298,446.660706 
	C449.365143,466.146301 471.416351,484.676544 493.125275,503.578125 
	C493.625214,504.013397 494.228149,504.330353 494.421570,505.738922 
	C396.114410,505.738922 297.807220,505.738922 199.000046,505.737091 
z"/>
<path fill="#32B6FF" opacity="1.000000" stroke="none" 
	d="
M132.001251,54.994568 
	C148.370117,40.365803 166.769089,29.843519 187.398438,23.688713 
	C203.967972,18.745161 221.022003,16.002188 238.423035,16.004478 
	C337.907745,16.017576 437.392487,16.007433 536.877197,16.005184 
	C537.538574,16.005169 538.199890,16.005182 539.715454,16.005182 
	C538.555603,17.410698 537.906860,18.418182 537.052002,19.200474 
	C514.698547,39.656727 492.023041,59.775406 470.134552,80.716843 
	C463.512848,87.052040 456.994904,89.177307 448.104095,89.156036 
	C335.288544,88.886131 222.472153,88.966911 109.655991,88.958382 
	C107.069977,88.958183 104.483955,88.958359 101.334854,88.958359 
	C110.524765,76.156021 120.269310,64.918823 132.001251,54.994568 
z"/>
</svg>
